<?xml version="1.0" standalone="no"?>
<!DOCTYPE svg PUBLIC "-//W3C//DTD SVG 20010904//EN"
 "http://www.w3.org/TR/2001/REC-SVG-20010904/DTD/svg10.dtd">
<svg version="1.0" xmlns="http://www.w3.org/2000/svg"
 width="683.000000pt" height="384.000000pt" viewBox="0 0 683.000000 384.000000"
 preserveAspectRatio="xMidYMid meet">

<g transform="translate(0.000000,384.000000) scale(0.100000,-0.100000)"
fill="#ffffff" stroke="none">
<path d="M790 2651 c0 -26 5 -30 46 -40 76 -19 120 -47 138 -86 26 -55 61
-222 113 -542 l47 -293 162 0 161 0 -4 23 c-26 154 -103 708 -103 741 0 88 74
148 196 161 62 7 64 8 64 36 l0 29 -410 0 -410 0 0 -29z"/>
<path d="M2240 2652 c0 -28 3 -29 80 -46 141 -30 160 -73 100 -222 -39 -98
-210 -410 -362 -661 l-20 -33 84 0 84 0 249 413 c141 233 267 430 290 454 29
29 55 45 88 54 42 10 47 14 47 40 l0 29 -320 0 -320 0 0 -28z"/>
<path d="M3850 2651 c0 -27 2 -28 63 -35 91 -9 137 -24 169 -56 52 -53 41
-119 -116 -678 l-53 -192 170 2 170 3 99 355 c54 195 111 379 125 409 48 94
119 137 256 157 44 6 47 8 47 35 l0 29 -465 0 -465 0 0 -29z"/>
<path d="M2317 1643 c-26 -4 -27 -6 -11 -17 17 -13 15 -21 -19 -142 -42 -148
-42 -144 -23 -144 7 0 27 28 44 63 30 61 76 116 87 105 3 -3 -3 -38 -14 -78
-11 -40 -18 -77 -15 -81 9 -15 40 -10 57 9 19 21 23 42 5 24 -24 -24 -26 -10
-6 59 15 55 17 73 8 85 -19 22 -40 17 -76 -22 -19 -19 -34 -34 -34 -32 0 2 11
39 25 83 33 106 36 97 -28 88z"/>
<path d="M1250 1634 c0 -4 7 -12 16 -18 14 -11 15 -25 4 -127 -7 -63 -10 -125
-8 -137 2 -17 26 9 106 118 56 76 112 142 122 145 35 11 21 25 -25 25 -25 0
-45 -4 -45 -10 0 -5 5 -10 10 -10 18 0 10 -15 -56 -105 l-66 -90 7 90 c8 99
10 105 31 105 8 0 14 5 14 10 0 6 -25 10 -55 10 -30 0 -55 -3 -55 -6z"/>
<path d="M2731 1614 c-12 -15 -21 -41 -21 -59 0 -28 -5 -34 -41 -50 -74 -34
-100 -97 -61 -146 15 -17 29 -22 64 -22 25 1 55 6 66 12 15 8 29 7 56 -4 25
-10 42 -12 60 -6 36 14 43 32 9 25 -21 -4 -33 0 -47 15 -18 20 -18 21 14 61
17 22 38 40 46 40 8 0 14 5 14 10 0 6 -20 10 -45 10 -42 0 -61 -13 -33 -22 9
-3 7 -12 -6 -33 l-18 -28 -14 33 c-20 48 -17 63 16 82 63 36 60 108 -5 108
-24 0 -39 -7 -54 -26z m67 -20 c4 -27 -36 -64 -48 -45 -4 8 -6 20 -4 28 2 7 6
20 9 29 7 22 39 13 43 -12z m-69 -154 c20 -51 20 -56 4 -67 -39 -29 -93 -2
-93 48 0 18 10 36 31 54 17 14 33 25 34 23 2 -2 13 -28 24 -58z"/>
<path d="M3090 1634 c0 -4 7 -12 15 -18 13 -10 10 -26 -19 -126 -23 -77 -42
-121 -56 -132 -22 -17 -19 -18 87 -18 l109 0 12 33 c20 55 14 60 -22 23 -28
-30 -40 -36 -75 -36 -51 0 -51 1 -8 145 28 93 37 110 55 113 46 7 19 22 -38
22 -33 0 -60 -3 -60 -6z"/>
<path d="M3740 1600 c0 -13 7 -20 20 -20 13 0 20 7 20 20 0 13 -7 20 -20 20
-13 0 -20 -7 -20 -20z"/>
<path d="M1498 1524 c-52 -27 -91 -119 -72 -168 9 -22 56 -20 87 4 22 17 25
18 23 3 -2 -24 32 -28 55 -7 22 20 26 42 4 24 -9 -7 -17 -11 -19 -9 -2 2 7 40
20 84 12 44 21 82 18 84 -3 3 -13 0 -24 -7 -12 -7 -21 -8 -25 -2 -9 14 -35 12
-67 -6z m62 -35 c0 -51 -47 -119 -82 -119 -33 0 -18 82 24 128 32 33 58 29 58
-9z"/>
<path d="M1678 1533 c-29 -4 -39 -23 -13 -23 19 0 19 -6 -5 -82 -24 -76 -24
-88 -6 -88 8 0 27 26 41 59 26 56 79 121 90 109 3 -3 -3 -38 -14 -78 -11 -40
-18 -77 -15 -81 9 -15 40 -10 57 9 19 21 23 42 5 24 -24 -24 -26 -10 -6 59 15
55 17 73 8 85 -20 23 -40 17 -78 -23 -35 -38 -37 -35 -15 25 5 12 1 12 -49 5z"/>
<path d="M1880 1515 c-23 -25 -16 -37 8 -13 16 16 15 2 -3 -58 -8 -27 -15 -61
-15 -76 0 -41 43 -38 84 5 l32 34 -4 -34 c-4 -27 -1 -33 15 -33 11 0 27 8 36
18 21 23 22 39 2 22 -21 -17 -20 3 5 82 11 34 20 64 20 66 0 1 -8 2 -19 2 -12
0 -24 -14 -35 -44 -18 -48 -80 -125 -91 -114 -4 4 0 36 10 72 25 93 5 125 -45
71z"/>
<path d="M2126 1524 c-24 -23 -19 -51 15 -100 27 -36 30 -46 19 -59 -21 -26
-50 -18 -65 18 -14 32 -17 30 -28 -20 -5 -22 -2 -23 48 -23 89 0 109 43 54
118 -32 43 -31 62 2 62 12 0 24 -11 30 -27 10 -26 12 -27 19 -8 17 42 12 50
-34 53 -30 1 -50 -3 -60 -14z"/>
<path d="M3302 1517 c-28 -30 -29 -46 -1 -21 20 18 20 18 13 -11 -4 -17 -11
-40 -15 -53 -5 -13 -9 -39 -9 -58 0 -29 3 -34 24 -34 13 0 37 14 56 33 l31 32
-3 -30 c-4 -36 23 -46 53 -19 22 20 26 42 4 24 -9 -7 -17 -11 -19 -9 -2 2 7
39 19 82 23 78 23 78 2 75 -13 -2 -25 -16 -33 -41 -16 -46 -70 -117 -89 -117
-11 0 -9 15 7 71 11 39 17 77 14 85 -8 21 -30 17 -54 -9z"/>
<path d="M3548 1529 c-26 -14 -22 -57 8 -100 14 -21 24 -46 22 -56 -7 -38 -68
-22 -68 18 0 11 -4 19 -10 19 -5 0 -10 -9 -10 -19 0 -11 -3 -26 -6 -35 -5 -13
3 -16 48 -16 90 0 113 46 58 115 -34 42 -34 58 -2 63 16 2 23 -3 28 -22 6 -27
24 -36 24 -13 0 6 3 21 6 32 5 18 0 21 -38 22 -24 1 -51 -2 -60 -8z"/>
<path d="M3710 1531 c-21 -6 -22 -8 -8 -13 16 -7 16 -12 -3 -75 -25 -89 -25
-103 4 -103 26 0 65 35 53 47 -4 4 -11 1 -16 -7 -20 -32 -20 2 -1 68 30 99 30
99 -29 83z"/>
<path d="M3833 1533 c-25 -5 -31 -19 -11 -25 9 -3 6 -24 -10 -80 -26 -92 -26
-88 -4 -88 12 0 23 15 34 48 19 51 81 132 93 120 4 -4 0 -34 -9 -66 -9 -32
-16 -68 -16 -80 0 -30 30 -29 60 3 23 25 16 37 -8 13 -17 -17 -16 -1 4 71 9
33 14 66 11 75 -10 27 -43 18 -81 -21 -36 -37 -37 -37 -27 -10 19 49 17 50
-36 40z"/>
<path d="M4093 1524 c-61 -30 -97 -128 -64 -168 19 -22 79 -20 120 5 43 26 33
37 -14 15 -40 -19 -75 -8 -75 24 0 15 11 22 44 31 53 13 86 41 86 73 0 38 -42
47 -97 20z m63 -15 c9 -15 -35 -56 -70 -65 -27 -6 -28 -6 -16 17 28 54 68 76
86 48z"/>
<path d="M1223 1143 c3 -16 31 -191 64 -390 l58 -363 37 0 36 0 223 368 c122
202 229 377 237 390 l15 23 -79 -3 -79 -3 -74 -128 c-40 -71 -77 -125 -82
-120 -5 5 -16 62 -26 128 l-18 120 -159 3 -158 3 5 -28z"/>
<path d="M3765 1158 c-2 -7 -31 -112 -65 -233 -66 -241 -104 -332 -153 -369
-34 -26 -95 -46 -139 -46 -24 0 -28 -4 -28 -30 l0 -30 871 2 871 3 98 303 98
303 -25 10 c-41 15 -47 11 -83 -59 -86 -167 -198 -295 -302 -348 -28 -14 -94
-37 -146 -50 -185 -47 -604 -52 -710 -9 -87 35 -85 58 32 478 l24 87 -169 0
c-127 0 -171 -3 -174 -12z"/>
</g>
</svg>
